# xmcd
#
# Track frame offsets: 
#        150
#        22047
#        37599
#        61567
#        83458
#        96109
#        108918
#        129030
#        144279
#        163485
#        180129
#        196811
#        221767
#
# Disc length: 3196 seconds
#
# Revision: 0
# Processed by: cddbd v1.5.2PL0 Copyright (c) Steve Scherf et al.
# Submitted via: ExactAudioCopy v0.99pb4
#
DISCID=940c7a0d
DTITLE=Avion Blackman - Onyinye
DYEAR=2005
DGENRE=R&B
TTITLE0=I Love You Father
TTITLE1=Onyinye
TTITLE2=Marvelous Beauty
TTITLE3=I Thank You
TTITLE4=Show Me
TTITLE5=Sweet Love
TTITLE6=Blue
TTITLE7=Life
TTITLE8=You're Not Alone
TTITLE9=You'll Return
TTITLE10=I'm Sorry
TTITLE11=Heaven Above
TTITLE12=Give Me Life
EXTD=
EXTT0=
EXTT1=
EXTT2=
EXTT3=
EXTT4=
EXTT5=
EXTT6=
EXTT7=
EXTT8=
EXTT9=
EXTT10=
EXTT11=
EXTT12=
PLAYORDER=
